<svg xmlns="http://www.w3.org/2000/svg" viewBox="0 0 358.5 217"><path fill="#D8D2BC" d="M29.7 184.8l.7-46L75.7 32.5l25.1 115.6 20-40.3 42.6 51.4 28.8-123 32.4 124.4 34.2-138.1 48 132.6L349.5 70v114.4"/><g fill="none" stroke="#C9C3B1" stroke-miterlimit="10"><path d="M20.5 5h-7M20.5 31h-7M20.5 56h-7M20.5 82h-7M20.5 108h-7M20.5 134h-7M20.5 159h-7M20.5 185h-7"/></g><g fill="none" stroke="#C9C3B1" stroke-miterlimit="10"><path d="M32 195.5v7M77 195.5v7M123 195.5v7M168 195.5v7M214 195.5v7M259 195.5v7M305 195.5v7M350 195.5v7"/></g><text transform="translate(.675 8.723)"><tspan x="0" y="0" fill="#AFAB98" font-family="'MyriadPro-Regular'" font-size="8">70</tspan><tspan x="0" y="25.7" fill="#AFAB98" font-family="'MyriadPro-Regular'" font-size="8">60</tspan><tspan x="0" y="51.4" fill="#AFAB98" font-family="'MyriadPro-Regular'" font-size="8">50</tspan><tspan x="0" y="77.1" fill="#AFAB98" font-family="'MyriadPro-Regular'" font-size="8">40</tspan><tspan x="0" y="102.8" fill="#AFAB98" font-family="'MyriadPro-Regular'" font-size="8">30</tspan><tspan x="0" y="128.5" fill="#AFAB98" font-family="'MyriadPro-Regular'" font-size="8">20</tspan><tspan x="0" y="154.2" fill="#AFAB98" font-family="'MyriadPro-Regular'" font-size="8">10</tspan><tspan x="4.1" y="179.9" fill="#AFAB98" font-family="'MyriadPro-Regular'" font-size="8">0</tspan></text><text transform="translate(25.75 214.334)" fill="#AFAB98" font-family="'MyriadPro-Regular'" font-size="8">100</text><text transform="translate(71.184 214.334)" fill="#AFAB98" font-family="'MyriadPro-Regular'" font-size="8">150</text><text transform="translate(116.618 214.334)" fill="#AFAB98" font-family="'MyriadPro-Regular'" font-size="8">200</text><text transform="translate(162.053 214.334)" fill="#AFAB98" font-family="'MyriadPro-Regular'" font-size="8">250</text><text transform="translate(207.487 214.334)" fill="#AFAB98" font-family="'MyriadPro-Regular'" font-size="8">300</text><text transform="translate(252.922 214.334)" fill="#AFAB98" font-family="'MyriadPro-Regular'" font-size="8">350</text><text transform="translate(298.356 214.334)" fill="#AFAB98" font-family="'MyriadPro-Regular'" font-size="8">400</text><text transform="translate(343.79 214.334)" fill="#AFAB98" font-family="'MyriadPro-Regular'" font-size="8">450</text><path fill="#1B4B5A" d="M29.7 184.8l.7-30.8 45.3-90.4 25.1 96.6 20-27 42.6 34.5 28.8-82.5 32.4 83.4 34.2-128.1 48 124.4 42.7-57.1v76.7"/><path fill="#286C7C" d="M29.7 184.8l46-121.2 21.1 119.6 24-50 46 50.6 25.4-98.6 33.3 98.6 33.3-143.3 45 143.3 45.7-76v76.7"/><g opacity=".3" fill="none" stroke="#3C3B36" stroke-miterlimit="10"><path d="M304 184.5V4.5M259 184.5V4.5M213 184.5V4.5M121 184.5V4.5M167 184.5V4.5M76 184.5V4.5M350.5 31h-320M350.5 56h-320M350.5 82h-320M350.5 108h-320M350.5 134h-320M350.5 159h-320"/></g><path fill="none" stroke="#AFAB98" stroke-miterlimit="10" d="M349.5 185H30V5.5"/></svg>