<svg xmlns="http://www.w3.org/2000/svg" viewBox="0 0 143.3 144.5"><circle fill="none" stroke="#D8D2BC" stroke-width="25" stroke-miterlimit="10" cx="72" cy="72.5" r="58.1"/><text transform="translate(42.595 82.67)" fill="#1B4B5A" font-family="'Roboto-Regular'" font-size="36">88%</text><path fill="#1B4B5A" d="M107.4 37.8c19 19.4 18.9 50.5-.3 69.7l12 12c25.8-25.8 25.9-67.8.3-93.8l-12 12.1z"/><path fill="#286C7C" d="M36.9 107.6c-19.3-19.3-19.3-50.8 0-70.1l-12-12c-26 26-26 68.2 0 94.1.1.1.2.2.4.3l12-12c-.1-.1-.2-.2-.4-.3z"/><path fill="#FFF" d="M37.3 107.9l-12 12c26 25.6 67.9 25.5 93.8-.3l-12-12c-19.3 19.2-50.4 19.3-69.8.3z"/><path fill="#1B4B5A" d="M107.1 37.4c.1.1.2.2.3.4l12-12c-.1-.1-.2-.2-.3-.4-26-26-68.2-26-94.1 0l12 12c19.3-19.3 50.7-19.3 70.1 0z"/></svg>